<svg xmlns="http://www.w3.org/2000/svg" xmlns:xlink="http://www.w3.org/1999/xlink" width="200" zoomAndPan="magnify" viewBox="53 313 644 120" height="100" preserveAspectRatio="xMidYMid meet" version="1.0"><defs><g/><clipPath id="c29efaa133"><path d="M 294.582031 314.726562 L 410.082031 314.726562 L 410.082031 419 L 294.582031 419 Z M 294.582031 314.726562 " clip-rule="nonzero"/></clipPath><clipPath id="90e8637142"><path d="M 323 388 L 382 388 L 382 430.226562 L 323 430.226562 Z M 323 388 " clip-rule="nonzero"/></clipPath></defs><g fill="#323748" fill-opacity="1"><g transform="translate(56.832744, 394.549952)"><g><path d="M 6.328125 0 L 6.328125 -51.796875 L 22.953125 -51.796875 L 22.953125 0 Z M 6.328125 0 "/></g></g></g><g fill="#323748" fill-opacity="1"><g transform="translate(96.657677, 394.549952)"><g><path d="M 28 -51.796875 C 46.125 -51.796875 55.1875 -43.160156 55.1875 -25.890625 C 55.1875 -8.628906 46.125 0 28 0 L 5.578125 0 L 5.578125 -51.796875 Z M 22.203125 -12.421875 L 27.703125 -12.421875 C 34.679688 -12.421875 38.171875 -16.160156 38.171875 -23.640625 L 38.171875 -28.15625 C 38.171875 -35.632812 34.679688 -39.375 27.703125 -39.375 L 22.203125 -39.375 Z M 22.203125 -12.421875 "/></g></g></g><g fill="#323748" fill-opacity="1"><g transform="translate(165.767079, 394.549952)"><g><path d="M 27.328125 -56.609375 L 18.515625 -56.609375 L 24.234375 -66.703125 L 37.640625 -66.703125 L 37.796875 -66.390625 Z M 43.21875 -56.609375 L 34.40625 -56.609375 L 40.125 -66.703125 L 53.53125 -66.703125 L 53.671875 -66.390625 Z M 31.3125 -52.703125 C 40.25 -52.703125 47.148438 -50.414062 52.015625 -45.84375 C 56.890625 -41.28125 59.328125 -34.628906 59.328125 -25.890625 C 59.328125 -17.160156 56.890625 -10.507812 52.015625 -5.9375 C 47.148438 -1.375 40.25 0.90625 31.3125 0.90625 C 22.382812 0.90625 15.5 -1.363281 10.65625 -5.90625 C 5.8125 -10.445312 3.390625 -17.109375 3.390625 -25.890625 C 3.390625 -34.679688 5.8125 -41.347656 10.65625 -45.890625 C 15.5 -50.429688 22.382812 -52.703125 31.3125 -52.703125 Z M 31.3125 -40.28125 C 27.75 -40.28125 25.039062 -39.195312 23.1875 -37.03125 C 21.332031 -34.875 20.40625 -31.96875 20.40625 -28.3125 L 20.40625 -23.484375 C 20.40625 -19.828125 21.332031 -16.914062 23.1875 -14.75 C 25.039062 -12.59375 27.75 -11.515625 31.3125 -11.515625 C 34.875 -11.515625 37.597656 -12.59375 39.484375 -14.75 C 41.367188 -16.914062 42.3125 -19.828125 42.3125 -23.484375 L 42.3125 -28.3125 C 42.3125 -31.96875 41.367188 -34.875 39.484375 -37.03125 C 37.597656 -39.195312 34.875 -40.28125 31.3125 -40.28125 Z M 31.3125 -40.28125 "/></g></g></g><g fill="#323748" fill-opacity="1"><g transform="translate(239.016954, 394.549952)"><g><path d="M 34.625 -51.796875 C 37.84375 -51.796875 40.703125 -51.054688 43.203125 -49.578125 C 45.710938 -48.097656 47.671875 -46.0625 49.078125 -43.46875 C 50.484375 -40.882812 51.1875 -37.988281 51.1875 -34.78125 L 51.1875 -33.796875 C 51.1875 -30.585938 50.484375 -27.675781 49.078125 -25.0625 C 47.671875 -22.457031 45.710938 -20.414062 43.203125 -18.9375 C 40.703125 -17.457031 37.84375 -16.71875 34.625 -16.71875 L 22.203125 -16.71875 L 22.203125 0 L 5.578125 0 L 5.578125 -51.796875 Z M 22.203125 -28.828125 L 29.0625 -28.828125 C 30.8125 -28.828125 32.125 -29.28125 33 -30.1875 C 33.882812 -31.09375 34.328125 -32.320312 34.328125 -33.875 L 34.328125 -34.484375 C 34.328125 -36.085938 33.882812 -37.328125 33 -38.203125 C 32.125 -39.078125 30.8125 -39.515625 29.0625 -39.515625 L 22.203125 -39.515625 Z M 22.203125 -28.828125 "/></g></g></g><g fill="#323748" fill-opacity="1"><g transform="translate(303.887427, 394.549952)"><g/></g></g><g fill="#323748" fill-opacity="1"><g transform="translate(339.496609, 394.549952)"><g/></g></g><g fill="#323748" fill-opacity="1"><g transform="translate(375.105791, 394.549952)"><g/></g></g><g fill="#323748" fill-opacity="1"><g transform="translate(410.692101, 394.549952)"><g><path d="M 42.609375 0 L 20.859375 -25.140625 L 20.859375 0 L 5.578125 0 L 5.578125 -51.796875 L 20.09375 -51.796875 L 41.859375 -26.265625 L 41.859375 -51.796875 L 57.140625 -51.796875 L 57.140625 0 Z M 42.609375 0 "/></g></g></g><g fill="#323748" fill-opacity="1"><g transform="translate(483.941976, 394.549952)"><g><path d="M 35.375 -38.546875 L 35.375 0 L 18.75 0 L 18.75 -38.546875 L 1.734375 -38.546875 L 1.734375 -51.796875 L 52.328125 -51.796875 L 52.328125 -38.546875 Z M 35.375 -38.546875 "/></g></g></g><g fill="#323748" fill-opacity="1"><g transform="translate(548.835627, 394.549952)"><g><path d="M 31.3125 -52.703125 C 40.25 -52.703125 47.148438 -50.414062 52.015625 -45.84375 C 56.890625 -41.28125 59.328125 -34.628906 59.328125 -25.890625 C 59.328125 -17.160156 56.890625 -10.507812 52.015625 -5.9375 C 47.148438 -1.375 40.25 0.90625 31.3125 0.90625 C 22.382812 0.90625 15.5 -1.363281 10.65625 -5.90625 C 5.8125 -10.445312 3.390625 -17.109375 3.390625 -25.890625 C 3.390625 -34.679688 5.8125 -41.347656 10.65625 -45.890625 C 15.5 -50.429688 22.382812 -52.703125 31.3125 -52.703125 Z M 31.3125 -40.28125 C 27.75 -40.28125 25.039062 -39.195312 23.1875 -37.03125 C 21.332031 -34.875 20.40625 -31.96875 20.40625 -28.3125 L 20.40625 -23.484375 C 20.40625 -19.828125 21.332031 -16.914062 23.1875 -14.75 C 25.039062 -12.59375 27.75 -11.515625 31.3125 -11.515625 C 34.875 -11.515625 37.597656 -12.59375 39.484375 -14.75 C 41.367188 -16.914062 42.3125 -19.828125 42.3125 -23.484375 L 42.3125 -28.3125 C 42.3125 -31.96875 41.367188 -34.875 39.484375 -37.03125 C 37.597656 -39.195312 34.875 -40.28125 31.3125 -40.28125 Z M 31.3125 -40.28125 "/></g></g></g><g fill="#323748" fill-opacity="1"><g transform="translate(622.085501, 394.549952)"><g><path d="M 50.0625 0 L 50.0625 -18.671875 C 50.0625 -20.972656 50.148438 -23.34375 50.328125 -25.78125 C 50.503906 -28.21875 50.691406 -30.265625 50.890625 -31.921875 C 51.085938 -33.578125 51.210938 -34.628906 51.265625 -35.078125 L 50.96875 -35.078125 L 41.40625 0 L 28.375 0 L 18.75 -35 L 18.4375 -35 C 18.488281 -34.550781 18.628906 -33.507812 18.859375 -31.875 C 19.085938 -30.25 19.300781 -28.21875 19.5 -25.78125 C 19.695312 -23.34375 19.796875 -20.972656 19.796875 -18.671875 L 19.796875 0 L 4.515625 0 L 4.515625 -51.796875 L 28 -51.796875 L 35.828125 -21.90625 L 36.140625 -21.90625 L 43.890625 -51.796875 L 66.546875 -51.796875 L 66.546875 0 Z M 50.0625 0 "/></g></g></g><g clip-path="url(#c29efaa133)"><path fill="#0098da" d="M 394.214844 412.238281 L 409.917969 410.363281 L 399.894531 405.246094 C 406.320312 395.9375 410.082031 384.644531 410.082031 372.476562 C 410.082031 340.582031 384.226562 314.726562 352.332031 314.726562 C 320.441406 314.726562 294.582031 340.582031 294.582031 372.476562 C 294.582031 391.433594 303.714844 408.253906 317.820312 418.785156 C 318.824219 413.789062 320.367188 409.113281 322.363281 404.882812 C 313.648438 396.820312 308.195312 385.285156 308.195312 372.476562 C 308.195312 348.097656 327.957031 328.335938 352.332031 328.335938 C 376.710938 328.335938 396.472656 348.097656 396.472656 372.476562 C 396.472656 381.269531 393.902344 389.460938 389.46875 396.34375 L 387.570312 392.5625 L 384.464844 386.378906 L 383.769531 398.101562 L 383.429688 403.804688 L 383.238281 406.980469 L 382.84375 413.601562 L 385.488281 413.285156 Z M 394.214844 412.238281 " fill-opacity="1" fill-rule="evenodd"/></g><path fill="#323748" d="M 392.84375 370.566406 C 392.871094 371.199219 392.886719 371.835938 392.886719 372.476562 C 392.886719 373.121094 392.871094 373.757812 392.84375 374.390625 L 382.050781 374.390625 C 382.089844 373.773438 382.109375 373.148438 382.109375 372.523438 C 382.109375 371.863281 382.089844 371.210938 382.046875 370.566406 Z M 392.84375 370.566406 " fill-opacity="1" fill-rule="evenodd"/><path fill="#323748" d="M 327.535156 389.003906 L 318.203125 394.390625 C 317.515625 393.320312 316.875 392.214844 316.289062 391.078125 L 325.621094 385.691406 C 326.1875 386.839844 326.828125 387.945312 327.535156 389.003906 Z M 327.535156 389.003906 " fill-opacity="1" fill-rule="evenodd"/><path fill="#323748" d="M 311.824219 374.390625 C 311.792969 373.757812 311.777344 373.121094 311.777344 372.476562 C 311.777344 371.835938 311.792969 371.199219 311.824219 370.566406 L 322.625 370.566406 C 322.582031 371.210938 322.558594 371.863281 322.558594 372.523438 C 322.558594 373.148438 322.578125 373.773438 322.617188 374.390625 Z M 311.824219 374.390625 " fill-opacity="1" fill-rule="evenodd"/><path fill="#323748" d="M 316.289062 353.875 C 316.875 352.738281 317.515625 351.632812 318.203125 350.5625 L 327.574219 355.976562 C 326.867188 357.03125 326.226562 358.136719 325.65625 359.285156 Z M 316.289062 353.875 " fill-opacity="1" fill-rule="evenodd"/><path fill="#323748" d="M 330.421875 338.347656 C 331.492188 337.660156 332.59375 337.019531 333.730469 336.433594 L 339.152344 345.816406 C 338.003906 346.386719 336.894531 347.023438 335.835938 347.730469 Z M 330.421875 338.347656 " fill-opacity="1" fill-rule="evenodd"/><path fill="#323748" d="M 350.421875 331.96875 C 351.054688 331.9375 351.691406 331.925781 352.332031 331.925781 C 352.976562 331.925781 353.613281 331.9375 354.246094 331.96875 L 354.246094 342.808594 C 353.613281 342.765625 352.976562 342.746094 352.332031 342.746094 C 351.691406 342.746094 351.054688 342.765625 350.421875 342.808594 Z M 350.421875 331.96875 " fill-opacity="1" fill-rule="evenodd"/><path fill="#323748" d="M 370.933594 336.433594 C 372.070312 337.019531 373.175781 337.660156 374.246094 338.347656 L 368.828125 347.730469 C 367.773438 347.023438 366.664062 346.382812 365.515625 345.816406 Z M 370.933594 336.433594 " fill-opacity="1" fill-rule="evenodd"/><path fill="#323748" d="M 386.460938 350.5625 C 387.152344 351.632812 387.792969 352.738281 388.378906 353.875 L 379.011719 359.285156 C 378.441406 358.136719 377.796875 357.03125 377.089844 355.976562 Z M 386.460938 350.5625 " fill-opacity="1" fill-rule="evenodd"/><path fill="#323748" d="M 352.332031 383.292969 C 345.0625 383.292969 339.164062 377.398438 339.164062 370.125 C 339.164062 362.851562 345.0625 356.953125 352.332031 356.953125 C 359.605469 356.953125 365.503906 362.851562 365.503906 370.125 C 365.503906 377.398438 359.605469 383.292969 352.332031 383.292969 Z M 352.332031 383.292969 " fill-opacity="1" fill-rule="evenodd"/><g clip-path="url(#90e8637142)"><path fill="#323748" d="M 381.214844 422.5 C 372.71875 427.414062 362.851562 430.226562 352.332031 430.226562 C 341.8125 430.226562 331.949219 427.414062 323.453125 422.5 C 326.472656 403.03125 338.257812 388.515625 352.332031 388.515625 C 366.410156 388.515625 378.195312 403.03125 381.214844 422.5 Z M 381.214844 422.5 " fill-opacity="1" fill-rule="evenodd"/></g></svg>